<svg width="103" height="51" viewBox="0 0 103 51" fill="none" xmlns="http://www.w3.org/2000/svg">
<rect x="1" y="1" width="101.5" height="49" rx="3.5" fill="#F7F8FA"/>
<rect x="1" y="1" width="101.5" height="49" rx="3.5" stroke="#E8EBF0"/>
<g clip-path="url(#clip0_204_7633)">
<path d="M24.6786 17.4799H9.82143C9.50536 17.4799 9.25 17.7353 9.25 18.0514L9.25 32.9202C9.25 33.2363 9.50536 33.4917 9.82143 33.4917H24.6786C24.9946 33.4917 25.25 33.2363 25.25 32.9202L25.25 18.0514C25.25 17.7353 24.9946 17.4799 24.6786 17.4799ZM23.9643 29.2932L19.9679 24.554C19.9107 24.4861 19.8071 24.4861 19.75 24.554L15.6893 29.3682L13.1179 26.32C13.0607 26.2522 12.9571 26.2522 12.9 26.32L10.5357 29.1236V18.7657H23.9643V29.2932ZM13.5357 25.1667C13.7421 25.1667 13.9464 25.126 14.1371 25.047C14.3277 24.9681 14.501 24.8523 14.6469 24.7064C14.7928 24.5605 14.9086 24.3872 14.9875 24.1966C15.0665 24.0059 15.1071 23.8016 15.1071 23.5952C15.1071 23.3889 15.0665 23.1845 14.9875 22.9939C14.9086 22.8032 14.7928 22.63 14.6469 22.4841C14.501 22.3381 14.3277 22.2224 14.1371 22.1434C13.9464 22.0644 13.7421 22.0238 13.5357 22.0238C13.1189 22.0238 12.7192 22.1894 12.4245 22.4841C12.1298 22.7788 11.9643 23.1785 11.9643 23.5952C11.9643 24.012 12.1298 24.4117 12.4245 24.7064C12.7192 25.0011 13.1189 25.1667 13.5357 25.1667ZM13.5357 23.0952C13.8125 23.0952 14.0357 23.3184 14.0357 23.5952C14.0357 23.872 13.8125 24.0952 13.5357 24.0952C13.2589 24.0952 13.0357 23.872 13.0357 23.5952C13.0357 23.3184 13.2589 23.0952 13.5357 23.0952Z" fill="#C3C3C3"/>
</g>
<path d="M29.285 24.881H29.894L31 27.737L32.071 24.881H32.687L30.706 29.886H30.097L30.72 28.416L29.285 24.881ZM32.7577 24.881H33.3667L34.4727 27.737L35.5437 24.881H36.1597L34.1787 29.886H33.5697L34.1927 28.416L32.7577 24.881ZM36.2303 24.881H36.8393L37.9453 27.737L39.0163 24.881H39.6323L37.6513 29.886H37.0423L37.6653 28.416L36.2303 24.881ZM39.703 24.881H40.312L41.418 27.737L42.489 24.881H43.105L41.124 29.886H40.515L41.138 28.416L39.703 24.881ZM43.4906 26.449H47.0256V26.925H43.4906V26.449ZM49.3949 24.783C49.9479 24.783 50.3259 25.007 50.5289 25.469C50.6689 25.231 50.8369 25.056 51.0329 24.951C51.2079 24.839 51.4179 24.783 51.6699 24.783C52.0479 24.783 52.3489 24.902 52.5869 25.14C52.8109 25.385 52.9299 25.714 52.9299 26.127V28.5H52.3699V26.218C52.3699 25.896 52.2999 25.658 52.1669 25.504C52.0269 25.336 51.8029 25.259 51.4949 25.259C51.2569 25.259 51.0539 25.343 50.8999 25.525C50.7319 25.707 50.6549 25.938 50.6549 26.232V28.5H50.0949V26.218C50.0949 25.574 49.8149 25.259 49.2619 25.259C49.0029 25.259 48.7929 25.357 48.6249 25.567C48.4569 25.763 48.3729 26.008 48.3729 26.295V28.5H47.8129V24.881H48.3729V25.364C48.6459 24.972 48.9889 24.783 49.3949 24.783ZM55.3832 24.783C55.9362 24.783 56.3142 25.007 56.5172 25.469C56.6572 25.231 56.8252 25.056 57.0212 24.951C57.1962 24.839 57.4062 24.783 57.6582 24.783C58.0362 24.783 58.3372 24.902 58.5752 25.14C58.7992 25.385 58.9182 25.714 58.9182 26.127V28.5H58.3582V26.218C58.3582 25.896 58.2882 25.658 58.1552 25.504C58.0152 25.336 57.7912 25.259 57.4832 25.259C57.2452 25.259 57.0422 25.343 56.8882 25.525C56.7202 25.707 56.6432 25.938 56.6432 26.232V28.5H56.0832V26.218C56.0832 25.574 55.8032 25.259 55.2502 25.259C54.9912 25.259 54.7812 25.357 54.6132 25.567C54.4452 25.763 54.3612 26.008 54.3612 26.295V28.5H53.8012V24.881H54.3612V25.364C54.6342 24.972 54.9772 24.783 55.3832 24.783ZM59.7055 26.449H63.2405V26.925H59.7055V26.449ZM66.7018 23.404H67.2618V28.5H66.7368V27.905C66.4848 28.367 66.0788 28.598 65.5328 28.598C65.0008 28.598 64.5878 28.402 64.2938 28.024C64.0208 27.674 63.8878 27.226 63.8878 26.68C63.8878 26.148 64.0208 25.714 64.2938 25.364C64.5878 24.972 64.9868 24.783 65.5048 24.783C66.0228 24.783 66.4218 25.035 66.7018 25.546V23.404ZM65.6238 25.245C65.2248 25.245 64.9238 25.385 64.7278 25.665C64.5458 25.91 64.4618 26.246 64.4618 26.68C64.4618 27.114 64.5458 27.457 64.7208 27.709C64.9168 27.989 65.2108 28.136 65.6028 28.136C65.9668 28.136 66.2468 27.996 66.4498 27.716C66.6248 27.464 66.7158 27.135 66.7158 26.729V26.659C66.7158 26.239 66.6108 25.896 66.4148 25.637C66.2118 25.371 65.9458 25.245 65.6238 25.245ZM70.8033 23.404H71.3633V28.5H70.8383V27.905C70.5863 28.367 70.1803 28.598 69.6343 28.598C69.1023 28.598 68.6893 28.402 68.3953 28.024C68.1223 27.674 67.9893 27.226 67.9893 26.68C67.9893 26.148 68.1223 25.714 68.3953 25.364C68.6893 24.972 69.0883 24.783 69.6063 24.783C70.1243 24.783 70.5233 25.035 70.8033 25.546V23.404ZM69.7253 25.245C69.3263 25.245 69.0253 25.385 68.8293 25.665C68.6473 25.91 68.5633 26.246 68.5633 26.68C68.5633 27.114 68.6473 27.457 68.8223 27.709C69.0183 27.989 69.3123 28.136 69.7043 28.136C70.0683 28.136 70.3483 27.996 70.5513 27.716C70.7263 27.464 70.8173 27.135 70.8173 26.729V26.659C70.8173 26.239 70.7123 25.896 70.5163 25.637C70.3133 25.371 70.0473 25.245 69.7253 25.245ZM76.2279 23.404C76.8229 23.404 77.2709 23.663 77.5789 24.195C77.8449 24.643 77.9779 25.245 77.9779 26.001C77.9779 26.757 77.8449 27.359 77.5789 27.807C77.2709 28.332 76.8229 28.598 76.2279 28.598C75.6259 28.598 75.1779 28.332 74.8769 27.807C74.6109 27.359 74.4779 26.757 74.4779 26.001C74.4779 25.245 74.6109 24.643 74.8769 24.195C75.1779 23.663 75.6259 23.404 76.2279 23.404ZM76.2279 23.894C75.7799 23.894 75.4579 24.132 75.2619 24.615C75.1219 24.951 75.0519 25.413 75.0519 26.001C75.0519 26.582 75.1219 27.044 75.2619 27.387C75.4579 27.863 75.7799 28.108 76.2279 28.108C76.6759 28.108 76.9979 27.863 77.1939 27.387C77.3339 27.044 77.4109 26.582 77.4109 26.001C77.4109 25.413 77.3339 24.951 77.1939 24.615C76.9979 24.132 76.6759 23.894 76.2279 23.894ZM80.4252 23.404C81.0202 23.404 81.4682 23.663 81.7762 24.195C82.0422 24.643 82.1752 25.245 82.1752 26.001C82.1752 26.757 82.0422 27.359 81.7762 27.807C81.4682 28.332 81.0202 28.598 80.4252 28.598C79.8232 28.598 79.3752 28.332 79.0742 27.807C78.8082 27.359 78.6752 26.757 78.6752 26.001C78.6752 25.245 78.8082 24.643 79.0742 24.195C79.3752 23.663 79.8232 23.404 80.4252 23.404ZM80.4252 23.894C79.9772 23.894 79.6552 24.132 79.4592 24.615C79.3192 24.951 79.2492 25.413 79.2492 26.001C79.2492 26.582 79.3192 27.044 79.4592 27.387C79.6552 27.863 79.9772 28.108 80.4252 28.108C80.8732 28.108 81.1952 27.863 81.3912 27.387C81.5312 27.044 81.6082 26.582 81.6082 26.001C81.6082 25.413 81.5312 24.951 81.3912 24.615C81.1952 24.132 80.8732 23.894 80.4252 23.894ZM83.4465 25.091C83.5585 25.091 83.6635 25.133 83.7475 25.217C83.8315 25.301 83.8735 25.399 83.8735 25.518C83.8735 25.637 83.8315 25.742 83.7475 25.826C83.6635 25.903 83.5585 25.945 83.4465 25.945C83.3205 25.945 83.2225 25.903 83.1455 25.826C83.0615 25.742 83.0195 25.637 83.0195 25.518C83.0195 25.399 83.0615 25.301 83.1455 25.217C83.2225 25.133 83.3205 25.091 83.4465 25.091ZM83.4465 27.653C83.5585 27.653 83.6635 27.695 83.7475 27.779C83.8315 27.863 83.8735 27.961 83.8735 28.08C83.8735 28.199 83.8315 28.304 83.7475 28.388C83.6635 28.465 83.5585 28.507 83.4465 28.507C83.3205 28.507 83.2225 28.465 83.1455 28.388C83.0615 28.304 83.0195 28.199 83.0195 28.08C83.0195 27.961 83.0615 27.863 83.1455 27.779C83.2225 27.695 83.3205 27.653 83.4465 27.653ZM86.4682 23.404C87.0632 23.404 87.5112 23.663 87.8192 24.195C88.0852 24.643 88.2182 25.245 88.2182 26.001C88.2182 26.757 88.0852 27.359 87.8192 27.807C87.5112 28.332 87.0632 28.598 86.4682 28.598C85.8662 28.598 85.4182 28.332 85.1172 27.807C84.8512 27.359 84.7182 26.757 84.7182 26.001C84.7182 25.245 84.8512 24.643 85.1172 24.195C85.4182 23.663 85.8662 23.404 86.4682 23.404ZM86.4682 23.894C86.0202 23.894 85.6982 24.132 85.5022 24.615C85.3622 24.951 85.2922 25.413 85.2922 26.001C85.2922 26.582 85.3622 27.044 85.5022 27.387C85.6982 27.863 86.0202 28.108 86.4682 28.108C86.9162 28.108 87.2382 27.863 87.4342 27.387C87.5742 27.044 87.6512 26.582 87.6512 26.001C87.6512 25.413 87.5742 24.951 87.4342 24.615C87.2382 24.132 86.9162 23.894 86.4682 23.894ZM90.6654 23.404C91.2604 23.404 91.7084 23.663 92.0164 24.195C92.2824 24.643 92.4154 25.245 92.4154 26.001C92.4154 26.757 92.2824 27.359 92.0164 27.807C91.7084 28.332 91.2604 28.598 90.6654 28.598C90.0634 28.598 89.6154 28.332 89.3144 27.807C89.0484 27.359 88.9154 26.757 88.9154 26.001C88.9154 25.245 89.0484 24.643 89.3144 24.195C89.6154 23.663 90.0634 23.404 90.6654 23.404ZM90.6654 23.894C90.2174 23.894 89.8954 24.132 89.6994 24.615C89.5594 24.951 89.4894 25.413 89.4894 26.001C89.4894 26.582 89.5594 27.044 89.6994 27.387C89.8954 27.863 90.2174 28.108 90.6654 28.108C91.1134 28.108 91.4354 27.863 91.6314 27.387C91.7714 27.044 91.8484 26.582 91.8484 26.001C91.8484 25.413 91.7714 24.951 91.6314 24.615C91.4354 24.132 91.1134 23.894 90.6654 23.894Z" fill="#474747"/>
<defs>
<clipPath id="clip0_204_7633">
<rect width="16" height="16" fill="white" transform="translate(9.25 17.5)"/>
</clipPath>
</defs>
</svg>
