<svg width="40" height="40" viewBox="0 0 40 40" xmlns="http://www.w3.org/2000/svg">
<path d="M23.6219 17.9438C24.4093 17.9438 25.0105 18.2208 25.44 18.8042C25.8122 19.3 26.0126 19.9708 26.0126 20.8021C26.0126 21.6188 25.8122 22.2896 25.44 22.8C25.0105 23.3542 24.4093 23.6458 23.6219 23.6458C22.8202 23.6458 22.2046 23.3542 21.7752 22.8C21.3886 22.275 21.2025 21.6188 21.2025 20.8021C21.2025 19.9708 21.3886 19.3 21.7752 18.8042C22.2046 18.2208 22.8202 17.9438 23.6219 17.9438ZM22.2046 13.0292H23.3785L17.6379 23.85H16.4783L22.2046 13.0292ZM16.2636 13.2333C17.0509 13.2333 17.6522 13.5104 18.0817 14.0938C18.4539 14.5896 18.6543 15.2604 18.6543 16.0917C18.6543 16.9083 18.4539 17.5792 18.0817 18.0896C17.6522 18.6438 17.0509 18.9354 16.2636 18.9354C15.4619 18.9354 14.8463 18.6438 14.4168 18.0896C14.0303 17.5646 13.8442 16.9083 13.8442 16.0917C13.8442 15.2604 14.0303 14.5896 14.4168 14.0938C14.8463 13.5104 15.4619 13.2333 16.2636 13.2333ZM23.6219 18.95C23.2497 18.95 22.9777 19.1396 22.8059 19.5188C22.677 19.825 22.6198 20.2479 22.6198 20.8021C22.6198 21.3271 22.677 21.75 22.8059 22.0708C22.9777 22.45 23.2497 22.6396 23.6219 22.6396C23.9798 22.6396 24.2375 22.4354 24.4093 22.0417C24.5238 21.7354 24.5954 21.3271 24.5954 20.8021C24.5954 20.2625 24.5238 19.8396 24.3949 19.5333C24.2375 19.1396 23.9798 18.95 23.6219 18.95ZM16.2636 14.2396C15.8914 14.2396 15.6194 14.4292 15.4476 14.8083C15.3187 15.1146 15.2615 15.5375 15.2615 16.0917C15.2615 16.6167 15.3187 17.0396 15.4476 17.3604C15.6194 17.7396 15.8914 17.9292 16.2636 17.9292C16.6215 17.9292 16.8792 17.725 17.0509 17.3313C17.1655 17.025 17.237 16.6167 17.237 16.0917C17.237 15.5521 17.1655 15.1292 17.0366 14.8229C16.8792 14.4292 16.6215 14.2396 16.2636 14.2396Z"/>
<path d="M31.3098 2.5H37V3.77604H31.9534L28.3161 8.94943C31.2738 11.4908 33.1526 15.294 33.1526 19.5443C33.1526 27.1957 27.0637 33.3984 19.5526 33.3984C16.9813 33.3984 14.5766 32.6715 12.5258 31.4083L8.24286 37.5H3V36.224H7.59925L11.4843 30.6982C8.12892 28.1752 5.95263 24.1186 5.95263 19.5443C5.95263 11.8928 12.0416 5.6901 19.5526 5.6901C22.4412 5.6901 25.1195 6.6075 27.322 8.17188L31.3098 2.5ZM19.5526 6.96615C12.7334 6.96615 7.20526 12.5976 7.20526 19.5443C7.20526 22.4474 8.17073 25.1207 9.79242 27.2494C11.0989 27.0361 11.9772 26.0484 11.9772 25.013H13.2298C13.2298 26.1828 14.3509 27.2917 15.9439 27.2917C17.5368 27.2917 18.6579 26.1828 18.6579 25.013H19.9105C19.9105 26.1828 21.0316 27.2917 22.6246 27.2917C24.2175 27.2917 25.3386 26.1828 25.3386 25.013H26.5912C26.5912 26.1767 27.7007 27.2802 29.2805 27.2916C30.9217 25.1561 31.9 22.4666 31.9 19.5443C31.9 12.5976 26.3719 6.96615 19.5526 6.96615ZM28.2767 28.4453C27.3304 28.2164 26.4994 27.679 25.9649 26.9381C25.2433 27.9384 23.9814 28.5677 22.6246 28.5677C21.2677 28.5677 20.0058 27.9384 19.2842 26.9381C18.5626 27.9384 17.3007 28.5677 15.9439 28.5677C14.587 28.5677 13.3251 27.9384 12.6035 26.9381C12.1491 27.568 11.4805 28.0507 10.7089 28.3219C12.9517 30.6664 16.0852 32.1224 19.5526 32.1224C22.9588 32.1224 26.0428 30.7174 28.2767 28.4453Z"/>
</svg>
