<svg width="320" height="184" viewBox="0 0 320 184" fill="none" xmlns="http://www.w3.org/2000/svg">
<path d="M49.4924 87.0688C41.6524 127.249 83.3841 143.827 105.23 147.094C143.817 152.402 227.485 154.566 253.455 120.756C285.917 78.4938 278.567 26.4313 238.142 7.4438C209.868 -5.8364 161.58 13.5689 115.642 39.9063C81.515 55.7449 53.7556 65.2202 49.4924 87.0688Z" fill="url(#paint0_linear_2124_7050)"/>
<g filter="url(#filter0_f_2124_7050)">
<path d="M259.837 102.375C259.837 131.128 235.337 167.3 169.8 158.725C121.5 152.405 86.5 159.303 86.5 130.55C86.5 101.797 125.376 63.7875 174.087 63.7875C222.799 63.7875 259.837 73.6217 259.837 102.375Z" fill="url(#paint1_linear_2124_7050)"/>
</g>
<path d="M95.6583 48.4244C96.0214 44.2936 99.4808 41.125 103.628 41.125H233.341C238.036 41.125 241.721 45.1488 241.31 49.8256L232.917 145.301C232.554 149.431 229.094 152.6 224.947 152.6H95.2342C90.5394 152.6 86.8537 148.576 87.2649 143.899L95.6583 48.4244Z" fill="url(#paint2_linear_2124_7050)"/>
<path d="M233.341 41.1254C238.036 41.1255 241.721 45.1489 241.31 49.8256L240.552 58.4408L237.175 53.3754L233.091 41.1254H233.341Z" fill="url(#paint3_linear_2124_7050)"/>
<path d="M91.978 46.9681C92.3442 42.84 95.8024 39.675 99.9467 39.675H229.659C234.356 39.675 238.043 43.703 237.628 48.3819L229.247 142.857C228.881 146.985 225.423 150.15 221.278 150.15H91.566C86.8687 150.15 83.1823 146.122 83.5973 141.443L91.978 46.9681Z" fill="url(#paint4_linear_2124_7050)"/>
<path opacity="0.08" d="M219.779 63.175H236.315L236.206 64.3996H219.669L218.687 75.425H235.229L235.119 76.6496H218.578L217.596 87.675H234.142L234.033 88.8996H217.487L216.504 99.925H233.055L232.947 101.15H216.395L215.412 112.175H231.969L231.861 113.4H215.304L214.322 124.425H230.882L230.774 125.65H214.212L213.23 136.675H229.795L229.687 137.9H213.12L212.03 150.15H210.8L211.892 137.9H188.524L187.432 150.15H186.202L187.294 137.9H163.926L162.834 150.15H161.605L162.697 137.9H139.378L138.286 150.15H137.057L138.149 137.9H114.878L113.786 150.15H112.557L113.649 137.9H90.3782L89.3147 149.827C88.9032 149.707 88.5066 149.554 88.1262 149.372L89.1487 137.9H83.9114L84.0198 136.675H89.2571L90.2395 125.65H84.9983L85.1067 124.425H90.3489L91.3313 113.4H86.0842L86.1936 112.175H91.4407L92.4221 101.15H87.1711L87.2795 99.925H92.5315L93.5139 88.8996H88.2581L88.3665 87.675H93.6233L94.6057 76.6496H89.345L89.4534 75.425H94.7141L95.6965 64.3996H90.4319L90.5403 63.175H95.8059L97.8752 39.9484C98.2807 39.8399 98.698 39.7607 99.1252 39.717L97.0354 63.175H120.306L122.4 39.675H123.629L121.535 63.175H144.806L146.9 39.675H148.129L146.035 63.175H169.355L171.448 39.675H172.678L170.584 63.175H193.952L196.046 39.675H197.276L195.182 63.175H218.549L220.643 39.675H221.872L219.779 63.175ZM90.4866 136.675H113.757L114.74 125.65H91.469L90.4866 136.675ZM114.987 136.675H138.257L139.24 125.65H115.969L114.987 136.675ZM139.487 136.675H162.806L163.788 125.65H140.469L139.487 136.675ZM164.035 136.675H187.403L188.385 125.65H165.018L164.035 136.675ZM188.632 136.675H212L212.983 125.65H189.615L188.632 136.675ZM91.5784 124.425H114.849L115.831 113.4H92.5608L91.5784 124.425ZM116.078 124.425H139.349L140.331 113.4H117.061L116.078 124.425ZM140.578 124.425H163.898L164.88 113.4H141.561L140.578 124.425ZM165.127 124.425H188.494L189.477 113.4H166.11L165.127 124.425ZM189.724 124.425H213.092L214.074 113.4H190.706L189.724 124.425ZM92.6702 112.175H115.941L116.922 101.15H93.6516L92.6702 112.175ZM117.169 112.175H140.441L141.422 101.15H118.152L117.169 112.175ZM141.67 112.175H164.989L165.971 101.15H142.652L141.67 112.175ZM166.218 112.175H189.586L190.569 101.15H167.2L166.218 112.175ZM190.816 112.175H214.183L215.165 101.15H191.798L190.816 112.175ZM93.761 99.925H117.031L118.014 88.8996H94.7434L93.761 99.925ZM118.261 99.925H141.531L142.514 88.8996H119.243L118.261 99.925ZM142.761 99.925H166.08L167.063 88.8996H143.743L142.761 99.925ZM167.31 99.925H190.678L191.66 88.8996H168.292L167.31 99.925ZM191.906 99.925H215.275L216.257 88.8996H192.889L191.906 99.925ZM94.8528 87.675H118.123L119.106 76.6496H95.8352L94.8528 87.675ZM119.353 87.675H142.623L143.606 76.6496H120.335L119.353 87.675ZM143.853 87.675H167.172L168.155 76.6496H144.835L143.853 87.675ZM168.402 87.675H191.769L192.751 76.6496H169.384L168.402 87.675ZM192.998 87.675H216.366L217.349 76.6496H193.981L192.998 87.675ZM95.9436 75.425H119.214L120.197 64.3996H96.926L95.9436 75.425ZM120.444 75.425H143.714L144.697 64.3996H121.426L120.444 75.425ZM144.944 75.425H168.264L169.245 64.3996H145.926L144.944 75.425ZM169.492 75.425H192.861L193.843 64.3996H170.475L169.492 75.425ZM194.09 75.425H217.457L218.44 64.3996H195.073L194.09 75.425Z" fill="url(#paint5_linear_2124_7050)"/>
<path d="M92.0136 46.0106C92.3591 41.8643 95.8253 38.675 99.986 38.675H229.706C234.386 38.675 238.067 42.6752 237.678 47.3394L237.175 53.375H91.3999L92.0136 46.0106Z" fill="url(#paint6_linear_2124_7050)"/>
<mask id="mask0_2124_7050" style="mask-type:alpha" maskUnits="userSpaceOnUse" x="84" y="38" width="59" height="90">
<path d="M92.471 42.2399C92.6574 40.1787 94.3852 38.6 96.4548 38.6H138.122C140.473 38.6 142.318 40.6184 142.106 42.9601L134.829 123.46C134.643 125.521 132.915 127.1 130.845 127.1H84.8L92.471 42.2399Z" fill="white"/>
</mask>
<g mask="url(#mask0_2124_7050)">
<g filter="url(#filter1_f_2124_7050)">
<path d="M78.2194 31.6076C78.4212 29.5604 80.1429 28 82.2001 28H117.433C119.851 28 121.717 30.13 121.398 32.5275L111.349 108.055C110.82 112.031 107.429 115 103.419 115H74.4136C72.0494 115 70.201 112.96 70.4329 110.608L78.2194 31.6076Z" fill="url(#paint7_linear_2124_7050)" fill-opacity="0.25"/>
</g>
</g>
<path d="M77.6992 23.25H110.036C112.174 23.25 113.812 25.1499 113.498 27.2646L101.938 105.015C101.682 106.73 100.21 108 98.4756 108H66.1387C64.0008 108 62.3624 106.1 62.6768 103.985L74.2373 26.2354C74.4923 24.5201 75.9651 23.2501 77.6992 23.25Z" fill="url(#paint8_linear_2124_7050)" stroke="url(#paint9_linear_2124_7050)"/>
<path opacity="0.3" d="M77.954 33.5013C78.0022 33.212 78.2525 33 78.5458 33H83.4543C83.825 33 84.1071 33.3329 84.0461 33.6986L83.6336 36.1736C83.5854 36.4629 83.3351 36.675 83.0418 36.675H78.1333C77.7626 36.675 77.4805 36.342 77.5415 35.9763L77.954 33.5013Z" fill="#026AC8"/>
<path d="M76.7289 40.8513C76.7771 40.562 77.0274 40.3499 77.3207 40.3499H82.2292C82.5999 40.3499 82.882 40.6829 82.821 41.0486L82.4085 43.5236C82.3603 43.8129 82.11 44.0249 81.8167 44.0249H76.9082C76.5375 44.0249 76.2554 43.692 76.3164 43.3263L76.7289 40.8513Z" fill="#026AC8"/>
<path opacity="0.3" d="M75.504 48.2013C75.5523 47.912 75.8026 47.6999 76.0959 47.6999H81.0043C81.3751 47.6999 81.6571 48.0328 81.5962 48.3986L81.1837 50.8736C81.1354 51.1629 80.8851 51.3749 80.5918 51.3749H75.6834C75.3126 51.3749 75.0306 51.042 75.0915 50.6763L75.504 48.2013Z" fill="#026AC8"/>
<path opacity="0.3" d="M74.5289 55.4513C74.5772 55.162 74.8275 54.9499 75.1208 54.9499H80.0292C80.4 54.9499 80.682 55.2828 80.6211 55.6486L80.2086 58.1236C80.1603 58.4129 79.91 58.6249 79.6167 58.6249H74.7083C74.3375 58.6249 74.0555 58.292 74.1164 57.9263L74.5289 55.4513Z" fill="url(#paint10_linear_2124_7050)"/>
<path opacity="0.3" d="M87.754 33.5013C87.8023 33.212 88.0526 33 88.3459 33H107.954C108.325 33 108.607 33.3329 108.546 33.6986L108.134 36.1736C108.085 36.4629 107.835 36.675 107.542 36.675H87.9334C87.5626 36.675 87.2806 36.342 87.3415 35.9763L87.754 33.5013Z" fill="url(#paint11_linear_2124_7050)"/>
<path opacity="0.15" d="M86.5289 40.8513C86.5772 40.562 86.8275 40.3499 87.1208 40.3499H106.729C107.1 40.3499 107.382 40.6829 107.321 41.0486L106.909 43.5236C106.86 43.8129 106.61 44.0249 106.317 44.0249H86.7083C86.3375 44.0249 86.0555 43.692 86.1164 43.3263L86.5289 40.8513Z" fill="url(#paint12_linear_2124_7050)"/>
<path opacity="0.3" d="M85.3041 48.2013C85.3523 47.912 85.6026 47.6999 85.8959 47.6999H105.504C105.875 47.6999 106.157 48.0328 106.096 48.3986L105.684 50.8736C105.635 51.1629 105.385 51.3749 105.092 51.3749H85.4834C85.1127 51.3749 84.8306 51.042 84.8916 50.6763L85.3041 48.2013Z" fill="url(#paint13_linear_2124_7050)"/>
<path d="M66.5592 100.505C66.6057 100.214 66.8569 100 67.1516 100L80.9364 100C81.3056 100 81.5872 100.33 81.5288 100.695L81.0808 103.495C81.0343 103.786 80.7831 104 80.4884 104H66.7036C66.3344 104 66.0528 103.67 66.1112 103.305L66.5592 100.505Z" fill="#026AC8"/>
<path opacity="0.15" d="M83.5592 100.505C83.6058 100.214 83.8569 100 84.1517 100H98.2964C98.6656 100 98.9472 100.33 98.8889 100.695L98.4409 103.495C98.3943 103.786 98.1432 104 97.8484 104H83.7037C83.3345 104 83.0529 103.67 83.1112 103.305L83.5592 100.505Z" fill="url(#paint14_linear_2124_7050)"/>
<g filter="url(#filter2_f_2124_7050)">
<path d="M120.564 108.719C120.831 108.776 121.111 108.806 121.399 108.806H122.772V110.644H121.399C120.982 110.644 120.574 110.6 120.182 110.517L120.372 109.619L120.564 108.719ZM128.269 108.806V110.644H125.52V108.806H128.269ZM133.765 108.806V110.644H131.017V108.806H133.765ZM139.26 108.806V110.644H136.512V108.806H139.26ZM145.128 109.404L145.455 110.263C144.808 110.51 144.109 110.644 143.383 110.644H142.009V108.806H143.383C143.882 108.806 144.36 108.715 144.8 108.547L145.128 109.404ZM117.936 106.793C118.215 107.281 118.594 107.706 119.047 108.038L117.958 109.519C117.298 109.035 116.746 108.414 116.341 107.703L117.139 107.249L117.936 106.793ZM149.29 104.39L149.163 105.493C149.08 106.214 148.867 106.893 148.548 107.507L146.918 106.66C147.135 106.241 147.28 105.776 147.338 105.281L147.466 104.179L149.29 104.39ZM117.57 103.266L117.442 104.369C117.409 104.655 117.408 104.936 117.434 105.208L116.519 105.294L115.605 105.381C115.567 104.982 115.57 104.572 115.618 104.157L115.745 103.056L117.57 103.266ZM148.887 99.8735L149.8 99.98L149.545 102.185L147.719 101.974L147.974 99.7683L148.887 99.8735ZM117.166 98.7514L118.079 98.8567L117.824 101.061L116 100.851L116.253 98.645L117.166 98.7514ZM150.308 95.5693L150.053 97.7741L148.229 97.5635L148.483 95.3588L150.308 95.5693ZM118.588 94.446L118.334 96.6507L116.508 96.4402L116.763 94.2354L118.588 94.446ZM150.818 91.1598L150.563 93.3645L148.737 93.154L148.992 90.9492L150.818 91.1598ZM119.097 90.0365L118.842 92.2412L117.017 92.0307L117.271 89.8259L119.097 90.0365ZM151.326 86.7491L151.071 88.955L150.159 88.8485L149.246 88.7433L149.501 86.5385L151.326 86.7491ZM119.605 85.6257L119.352 87.8317L118.439 87.7264L117.526 87.62L117.78 85.4152L119.605 85.6257ZM151.721 82.2187C151.749 82.5184 151.755 82.8241 151.735 83.1327L151.708 83.4425L151.581 84.5443L149.755 84.3338L149.882 83.2308L149.901 83.0178C149.915 82.8055 149.911 82.5964 149.892 82.3922L150.806 82.306L151.721 82.2187ZM120.408 80.9399C120.245 81.2538 120.122 81.5939 120.047 81.9531L119.987 82.3192L119.86 83.421L118.035 83.2104L118.161 82.1075L118.2 81.8395C118.301 81.2178 118.498 80.63 118.777 80.0929L120.408 80.9399ZM149.367 78.0807C150.027 78.5655 150.579 79.1854 150.985 79.8967L150.187 80.3513L149.389 80.8071C149.111 80.3194 148.732 79.8941 148.279 79.5618L148.822 78.8213L149.367 78.0807ZM125.316 76.9562V78.7937H123.942C123.443 78.7938 122.965 78.8853 122.524 79.0533L121.87 77.3367C122.516 77.0902 123.216 76.9563 123.942 76.9562H125.316ZM145.927 76.9562L146.238 76.9646C146.547 76.9808 146.85 77.0206 147.144 77.083L146.952 77.9815L146.762 78.8811C146.562 78.8384 146.354 78.8109 146.141 78.7997L145.927 78.7937H144.553V76.9562H145.927ZM130.812 76.9562V78.7937H128.064V76.9562H130.812ZM136.309 76.9562V78.7937H133.561V76.9562H136.309ZM141.805 76.9562V78.7937H139.057V76.9562H141.805Z" fill="#0C1B41" fill-opacity="0.25"/>
</g>
<path d="M115.491 77.7415C115.724 75.7232 117.433 74.2 119.465 74.2H143.262C145.653 74.2 147.51 76.2835 147.236 78.6585L144.484 102.509C144.251 104.527 142.542 106.05 140.51 106.05H116.713C114.322 106.05 112.465 103.967 112.74 101.592L115.491 77.7415Z" stroke="white" stroke-width="1.5" stroke-dasharray="2 2"/>
<g filter="url(#filter3_f_2124_7050)">
<path d="M134.838 88.9C135.193 88.9001 135.47 89.207 135.434 89.5602L135.01 93.8004H139.056C139.435 93.8006 139.718 94.1462 139.644 94.5172L139.394 95.7672C139.338 96.0475 139.092 96.2494 138.806 96.2496H134.765L134.33 100.61C134.299 100.917 134.04 101.15 133.732 101.15H132.488C132.133 101.15 131.856 100.843 131.891 100.49L132.315 96.2496H128.27C127.892 96.2496 127.607 95.9031 127.681 95.5318L127.931 94.2818C127.988 94.0016 128.234 93.8004 128.52 93.8004H132.56L132.997 89.44C133.028 89.1334 133.285 88.9 133.594 88.9H134.838Z" fill="#0C1B41" fill-opacity="0.25"/>
</g>
<path d="M129.938 84C130.292 84.0002 130.569 84.3071 130.534 84.6602L130.11 88.9004H134.155C134.534 88.9004 134.818 89.2461 134.744 89.6172L134.494 90.8672C134.438 91.1476 134.191 91.3496 133.905 91.3496H129.865L129.429 95.71C129.398 96.0165 129.14 96.25 128.832 96.25H127.588C127.233 96.2499 126.956 95.943 126.991 95.5898L127.415 91.3496H123.369C122.991 91.3494 122.707 91.0038 122.781 90.6328L123.031 89.3828C123.087 89.1025 123.333 88.9006 123.619 88.9004H127.66L128.096 84.54C128.126 84.2334 128.385 84 128.693 84H129.938Z" fill="white"/>
<g filter="url(#filter4_f_2124_7050)">
<path d="M171.841 82.6415C172.074 80.6231 173.783 79.1 175.815 79.1H199.612C202.003 79.1 203.86 81.1835 203.586 83.5585L200.834 107.409C200.601 109.427 198.892 110.95 196.86 110.95H173.063C170.672 110.95 168.815 108.867 169.089 106.492L171.841 82.6415Z" fill="#0C1B41" fill-opacity="0.25"/>
</g>
<path d="M166.941 77.7415C167.174 75.7232 168.883 74.2 170.915 74.2H194.712C197.103 74.2 198.96 76.2835 198.686 78.6585L195.934 102.509C195.701 104.527 193.992 106.05 191.96 106.05H168.163C165.772 106.05 163.915 103.967 164.189 101.592L166.941 77.7415Z" fill="url(#paint15_linear_2124_7050)"/>
<path d="M174.176 85.0233L167.729 93.3128C167.482 93.6302 167.337 94.0147 167.312 94.416L166.87 101.475C166.798 102.627 167.713 103.6 168.866 103.6H191.861C192.896 103.6 193.759 102.811 193.853 101.781L194.236 97.5656C194.277 97.1106 194.162 96.6552 193.908 96.2751L190.61 91.3276C189.959 90.3516 188.613 90.1425 187.697 90.8752L184.148 93.714C183.683 94.0865 182.996 93.9713 182.678 93.4671L177.446 85.1832C176.706 84.0114 175.027 83.9293 174.176 85.0233Z" fill="url(#paint16_linear_2124_7050)"/>
<ellipse cx="189.336" cy="82.5362" rx="3.675" ry="3.90834" transform="rotate(14.5832 189.336 82.5362)" fill="#D89E64"/>
<path d="M136.736 97.9385L153.812 104.342C154.302 104.526 154.338 105.206 153.869 105.44L146.933 108.908L143.465 115.844C143.231 116.313 142.551 116.277 142.367 115.787L135.963 98.711C135.782 98.2287 136.253 97.7576 136.736 97.9385Z" fill="white"/>
<path d="M137.458 99.4336L141.625 103.6L146.933 108.908L143.465 115.844C143.231 116.313 142.551 116.277 142.367 115.787L136.472 100.069C136.246 99.4644 137.002 98.9774 137.458 99.4336Z" fill="url(#paint17_linear_2124_7050)"/>
<path d="M111 36.225C115.287 37.45 125.7 48.475 122.025 57.6625C115.393 74.2426 115.288 77.875 130.6 82.1625" stroke="white" stroke-width="1.5" stroke-dasharray="2 2"/>
<g filter="url(#filter5_d_2124_7050)">
<circle cx="112.837" cy="35.6125" r="3.0625" fill="url(#paint18_linear_2124_7050)"/>
</g>
<ellipse cx="213.735" cy="45.843" rx="2.2134" ry="2.35394" transform="rotate(14.5832 213.735 45.843)" fill="#52CFAC"/>
<ellipse cx="220.734" cy="45.843" rx="2.2134" ry="2.35394" transform="rotate(14.5832 220.734 45.843)" fill="#F0C54F"/>
<ellipse cx="227.734" cy="45.843" rx="2.2134" ry="2.35394" transform="rotate(14.5832 227.734 45.843)" fill="#CF6E6E"/>
<g filter="url(#filter6_f_2124_7050)">
<path d="M168.768 127.572C168.987 125.54 170.701 124 172.745 124H244.546C246.925 124 248.778 126.063 248.523 128.428L247.232 140.428C247.013 142.46 245.299 144 243.255 144H171.454C169.075 144 167.222 141.937 167.477 139.572L168.768 127.572Z" fill="url(#paint19_linear_2124_7050)" fill-opacity="0.25"/>
</g>
<path d="M165.502 118.8H238.901C240.965 118.8 242.581 120.577 242.386 122.631L241.282 134.232C241.111 136.028 239.602 137.399 237.798 137.4H164.398C162.335 137.399 160.719 135.623 160.914 133.569L162.019 121.969C162.189 120.173 163.698 118.8 165.502 118.8Z" fill="url(#paint20_linear_2124_7050)" stroke="url(#paint21_linear_2124_7050)"/>
<path d="M167.879 123.701C167.927 123.412 168.178 123.2 168.471 123.2H173.379C173.75 123.2 174.032 123.533 173.971 123.899L173.559 126.374C173.51 126.663 173.26 126.875 172.967 126.875H168.058C167.688 126.875 167.406 126.542 167.467 126.176L167.879 123.701Z" fill="#026AC8"/>
<path opacity="0.3" d="M166.654 129.826C166.702 129.537 166.952 129.325 167.246 129.325H172.154C172.525 129.325 172.807 129.658 172.746 130.024L172.334 132.499C172.285 132.788 172.035 133 171.742 133H166.833C166.463 133 166.18 132.667 166.241 132.301L166.654 129.826Z" fill="#026AC8"/>
<path opacity="0.3" d="M177.679 123.701C177.727 123.412 177.977 123.2 178.271 123.2H234.629C235 123.2 235.282 123.533 235.221 123.899L234.808 126.374C234.76 126.663 234.51 126.875 234.217 126.875H177.858C177.487 126.875 177.205 126.542 177.266 126.176L177.679 123.701Z" fill="url(#paint22_linear_2124_7050)"/>
<path opacity="0.15" d="M208.904 129.325C209.275 129.325 209.557 129.658 209.496 130.023L209.083 132.499C209.035 132.788 208.784 133 208.491 133H176.633C176.262 133 175.98 132.667 176.041 132.302L176.454 129.826C176.502 129.537 176.753 129.325 177.046 129.325H208.904ZM224.829 129.325C225.2 129.325 225.482 129.658 225.421 130.023L225.009 132.499C224.961 132.788 224.71 133 224.417 133H212.158C211.788 133 211.506 132.667 211.566 132.302L211.979 129.826C212.027 129.537 212.277 129.325 212.57 129.325H224.829Z" fill="url(#paint23_linear_2124_7050)"/>
<defs>
<filter id="filter0_f_2124_7050" x="65.3" y="42.5875" width="215.737" height="138.62" filterUnits="userSpaceOnUse" color-interpolation-filters="sRGB">
<feFlood flood-opacity="0" result="BackgroundImageFix"/>
<feBlend mode="normal" in="SourceGraphic" in2="BackgroundImageFix" result="shape"/>
<feGaussianBlur stdDeviation="10.6" result="effect1_foregroundBlur_2124_7050"/>
</filter>
<filter id="filter1_f_2124_7050" x="66.4133" y="24" width="59.02" height="95" filterUnits="userSpaceOnUse" color-interpolation-filters="sRGB">
<feFlood flood-opacity="0" result="BackgroundImageFix"/>
<feBlend mode="normal" in="SourceGraphic" in2="BackgroundImageFix" result="shape"/>
<feGaussianBlur stdDeviation="2" result="effect1_foregroundBlur_2124_7050"/>
</filter>
<filter id="filter2_f_2124_7050" x="113.579" y="74.9562" width="40.1675" height="37.6875" filterUnits="userSpaceOnUse" color-interpolation-filters="sRGB">
<feFlood flood-opacity="0" result="BackgroundImageFix"/>
<feBlend mode="normal" in="SourceGraphic" in2="BackgroundImageFix" result="shape"/>
<feGaussianBlur stdDeviation="1" result="effect1_foregroundBlur_2124_7050"/>
</filter>
<filter id="filter3_f_2124_7050" x="125.67" y="86.9" width="15.9863" height="16.25" filterUnits="userSpaceOnUse" color-interpolation-filters="sRGB">
<feFlood flood-opacity="0" result="BackgroundImageFix"/>
<feBlend mode="normal" in="SourceGraphic" in2="BackgroundImageFix" result="shape"/>
<feGaussianBlur stdDeviation="1" result="effect1_foregroundBlur_2124_7050"/>
</filter>
<filter id="filter4_f_2124_7050" x="165.062" y="75.1" width="42.5498" height="39.85" filterUnits="userSpaceOnUse" color-interpolation-filters="sRGB">
<feFlood flood-opacity="0" result="BackgroundImageFix"/>
<feBlend mode="normal" in="SourceGraphic" in2="BackgroundImageFix" result="shape"/>
<feGaussianBlur stdDeviation="2" result="effect1_foregroundBlur_2124_7050"/>
</filter>
<filter id="filter5_d_2124_7050" x="107.775" y="30.55" width="10.125" height="10.125" filterUnits="userSpaceOnUse" color-interpolation-filters="sRGB">
<feFlood flood-opacity="0" result="BackgroundImageFix"/>
<feColorMatrix in="SourceAlpha" type="matrix" values="0 0 0 0 0 0 0 0 0 0 0 0 0 0 0 0 0 0 127 0" result="hardAlpha"/>
<feMorphology radius="2" operator="dilate" in="SourceAlpha" result="effect1_dropShadow_2124_7050"/>
<feOffset/>
<feComposite in2="hardAlpha" operator="out"/>
<feColorMatrix type="matrix" values="0 0 0 0 1 0 0 0 0 1 0 0 0 0 1 0 0 0 0.5 0"/>
<feBlend mode="normal" in2="BackgroundImageFix" result="effect1_dropShadow_2124_7050"/>
<feBlend mode="normal" in="SourceGraphic" in2="effect1_dropShadow_2124_7050" result="shape"/>
</filter>
<filter id="filter6_f_2124_7050" x="163.453" y="120" width="89.0938" height="28" filterUnits="userSpaceOnUse" color-interpolation-filters="sRGB">
<feFlood flood-opacity="0" result="BackgroundImageFix"/>
<feBlend mode="normal" in="SourceGraphic" in2="BackgroundImageFix" result="shape"/>
<feGaussianBlur stdDeviation="2" result="effect1_foregroundBlur_2124_7050"/>
</filter>
<linearGradient id="paint0_linear_2124_7050" x1="161.157" y1="3.14999" x2="161.157" y2="135.45" gradientUnits="userSpaceOnUse">
<stop stop-color="#E9F2FB"/>
<stop offset="1" stop-color="#E9F2FB" stop-opacity="0"/>
</linearGradient>
<linearGradient id="paint1_linear_2124_7050" x1="204.1" y1="112.175" x2="75.475" y2="159.337" gradientUnits="userSpaceOnUse">
<stop stop-color="#82B5E7" stop-opacity="0.5"/>
<stop offset="1" stop-color="#8CE8E3" stop-opacity="0.33"/>
</linearGradient>
<linearGradient id="paint2_linear_2124_7050" x1="104.262" y1="156.887" x2="265.962" y2="80.9375" gradientUnits="userSpaceOnUse">
<stop stop-color="#B6DBEB"/>
<stop offset="0.600962" stop-color="#639BD7"/>
<stop offset="1" stop-color="#14468D"/>
</linearGradient>
<linearGradient id="paint3_linear_2124_7050" x1="238.489" y1="47.1447" x2="237.881" y2="57.656" gradientUnits="userSpaceOnUse">
<stop stop-color="#D6E0ED"/>
<stop offset="1" stop-color="#A7C6EF"/>
</linearGradient>
<linearGradient id="paint4_linear_2124_7050" x1="188.787" y1="54.6" x2="117.737" y2="172.2" gradientUnits="userSpaceOnUse">
<stop stop-color="#3175DB"/>
<stop offset="0.865385" stop-color="#B9E2FF"/>
<stop offset="1" stop-color="#CEF6F4"/>
</linearGradient>
<linearGradient id="paint5_linear_2124_7050" x1="203.543" y1="47.566" x2="160.803" y2="150.436" gradientUnits="userSpaceOnUse">
<stop stop-color="white"/>
<stop offset="1" stop-color="white" stop-opacity="0.5"/>
</linearGradient>
<linearGradient id="paint6_linear_2124_7050" x1="79.7624" y1="60.1125" x2="157.55" y2="46.025" gradientUnits="userSpaceOnUse">
<stop stop-color="#E9F2FB" stop-opacity="0.7"/>
<stop offset="1" stop-color="white"/>
</linearGradient>
<linearGradient id="paint7_linear_2124_7050" x1="85" y1="72" x2="118.127" y2="155.976" gradientUnits="userSpaceOnUse">
<stop stop-color="#081945"/>
<stop offset="1" stop-color="#0C1B41" stop-opacity="0"/>
</linearGradient>
<linearGradient id="paint8_linear_2124_7050" x1="84.6626" y1="29.4875" x2="96.3001" y2="85.225" gradientUnits="userSpaceOnUse">
<stop stop-color="#E6F0F9"/>
<stop offset="1" stop-color="#FDFEFF"/>
</linearGradient>
<linearGradient id="paint9_linear_2124_7050" x1="79.1501" y1="61.95" x2="79.1501" y2="78.4875" gradientUnits="userSpaceOnUse">
<stop stop-color="white" stop-opacity="0"/>
<stop offset="1" stop-color="white"/>
</linearGradient>
<linearGradient id="paint10_linear_2124_7050" x1="75.4184" y1="56.7874" x2="80.7375" y2="56.7874" gradientUnits="userSpaceOnUse">
<stop stop-color="#0DAA9C"/>
<stop offset="1" stop-color="#026AC8" stop-opacity="0.5"/>
</linearGradient>
<linearGradient id="paint11_linear_2124_7050" x1="86.7251" y1="34.7125" x2="108.163" y2="34.7125" gradientUnits="userSpaceOnUse">
<stop stop-color="#026AC8"/>
<stop offset="1" stop-color="#026AC8" stop-opacity="0.5"/>
</linearGradient>
<linearGradient id="paint12_linear_2124_7050" x1="85.5" y1="42.0624" x2="106.937" y2="42.0624" gradientUnits="userSpaceOnUse">
<stop stop-color="#026AC8"/>
<stop offset="1" stop-color="#026AC8" stop-opacity="0.5"/>
</linearGradient>
<linearGradient id="paint13_linear_2124_7050" x1="84.2751" y1="49.4124" x2="105.713" y2="49.4124" gradientUnits="userSpaceOnUse">
<stop stop-color="#026AC8"/>
<stop offset="1" stop-color="#026AC8" stop-opacity="0.5"/>
</linearGradient>
<linearGradient id="paint14_linear_2124_7050" x1="82.6605" y1="101.646" x2="98.6605" y2="101.646" gradientUnits="userSpaceOnUse">
<stop stop-color="#026AC8"/>
<stop offset="1" stop-color="#026AC8" stop-opacity="0.5"/>
</linearGradient>
<linearGradient id="paint15_linear_2124_7050" x1="163.675" y1="69.9125" x2="185.113" y2="93.1875" gradientUnits="userSpaceOnUse">
<stop stop-color="white"/>
<stop offset="1" stop-color="#E6EEF9"/>
</linearGradient>
<linearGradient id="paint16_linear_2124_7050" x1="184.5" y1="90.125" x2="194.3" y2="110.337" gradientUnits="userSpaceOnUse">
<stop stop-color="#0DAA9C"/>
<stop offset="1" stop-color="#025EC8"/>
</linearGradient>
<linearGradient id="paint17_linear_2124_7050" x1="139.175" y1="101.763" x2="144.075" y2="112.788" gradientUnits="userSpaceOnUse">
<stop stop-color="white"/>
<stop offset="1" stop-color="#AAD4FF"/>
</linearGradient>
<linearGradient id="paint18_linear_2124_7050" x1="112.837" y1="34.3875" x2="115.287" y2="38.675" gradientUnits="userSpaceOnUse">
<stop stop-color="#0DAA9C"/>
<stop offset="1" stop-color="#33CA7E"/>
</linearGradient>
<linearGradient id="paint19_linear_2124_7050" x1="198.81" y1="137.75" x2="242.033" y2="120.679" gradientUnits="userSpaceOnUse">
<stop stop-color="#0C1B41"/>
<stop offset="1" stop-color="#0C1B41" stop-opacity="0"/>
</linearGradient>
<linearGradient id="paint20_linear_2124_7050" x1="197.362" y1="120.137" x2="198.6" y2="148.554" gradientUnits="userSpaceOnUse">
<stop stop-color="#E6F0F9"/>
<stop offset="1" stop-color="#FDFEFF"/>
</linearGradient>
<linearGradient id="paint21_linear_2124_7050" x1="191.789" y1="130.023" x2="191.789" y2="134.969" gradientUnits="userSpaceOnUse">
<stop stop-color="white" stop-opacity="0"/>
<stop offset="1" stop-color="white"/>
</linearGradient>
<linearGradient id="paint22_linear_2124_7050" x1="175.793" y1="124.913" x2="233.98" y2="124.913" gradientUnits="userSpaceOnUse">
<stop stop-color="#026AC8"/>
<stop offset="1" stop-color="#026AC8" stop-opacity="0.5"/>
</linearGradient>
<linearGradient id="paint23_linear_2124_7050" x1="186.432" y1="131.162" x2="225.43" y2="131.162" gradientUnits="userSpaceOnUse">
<stop stop-color="#0DAA9C"/>
<stop offset="1" stop-color="#026AC8" stop-opacity="0.5"/>
</linearGradient>
</defs>
</svg>
