<?xml version="1.0" standalone="no"?><!DOCTYPE svg PUBLIC "-//W3C//DTD SVG 1.1//EN" "http://www.w3.org/Graphics/SVG/1.1/DTD/svg11.dtd"><svg t="1744102258863" class="icon" viewBox="0 0 1075 1024" version="1.1" xmlns="http://www.w3.org/2000/svg" p-id="22708" xmlns:xlink="http://www.w3.org/1999/xlink" width="209.9609375" height="200"><path d="M191.439238 167.350857c0-41.74019 33.840762-75.580952 75.580952-75.580952h487.619048c41.74019 0 75.580952 33.840762 75.580952 75.580952v133.900191a75.580952 75.580952 0 0 1-75.580952 75.580952h-215.137524v124.830476h265.752381c30.915048 0 56.07619 25.161143 56.076191 56.076191v104.886857h31.695238c30.915048 0 56.07619 25.112381 56.07619 56.07619v117.028572a56.07619 56.07619 0 0 1-56.07619 56.07619h-117.028572a56.07619 56.07619 0 0 1-56.07619-56.07619v-117.028572c0-30.96381 25.063619-56.07619 56.07619-56.07619h31.695238v-104.838095a2.438095 2.438095 0 0 0-2.438095-2.438096h-265.752381v107.276191h31.695238c30.96381 0 56.07619 25.112381 56.076191 56.07619v117.028572a56.07619 56.07619 0 0 1-56.076191 56.07619h-117.028571a56.07619 56.07619 0 0 1-56.076191-56.07619v-117.028572c0-30.96381 25.063619-56.07619 56.076191-56.07619h31.695238v-107.276191H218.794667a2.438095 2.438095 0 0 0-2.438096 2.438096v104.838095h31.695239c30.96381 0 56.07619 25.112381 56.07619 56.07619v117.028572a56.07619 56.07619 0 0 1-56.07619 56.07619h-117.028572a56.07619 56.07619 0 0 1-56.07619-56.07619v-117.028572c0-30.96381 25.112381-56.07619 56.07619-56.07619h31.695238v-104.838095c0-30.96381 25.112381-56.07619 56.076191-56.076191h267.068952V376.832H267.02019a75.580952 75.580952 0 0 1-75.580952-75.580952V167.350857z m75.580952-21.942857a21.942857 21.942857 0 0 0-21.942857 21.942857v133.900191c0 12.141714 9.801143 21.942857 21.942857 21.942857h487.619048a21.942857 21.942857 0 0 0 21.942857-21.942857V167.350857a21.942857 21.942857 0 0 0-21.942857-21.942857h-487.619048z m-136.045714 570.855619a2.438095 2.438095 0 0 0-2.438095 2.438095v117.028572c0 1.365333 1.121524 2.438095 2.438095 2.438095h117.028572a2.438095 2.438095 0 0 0 2.438095-2.438095v-117.028572a2.438095 2.438095 0 0 0-2.438095-2.438095h-117.028572z m323.193905 0a2.438095 2.438095 0 0 0-2.438095 2.438095v117.028572c0 1.365333 1.072762 2.438095 2.438095 2.438095h117.028571a2.438095 2.438095 0 0 0 2.438096-2.438095v-117.028572a2.438095 2.438095 0 0 0-2.438096-2.438095h-117.028571z m321.828571 0a2.438095 2.438095 0 0 0-2.438095 2.438095v117.028572c0 1.365333 1.072762 2.438095 2.438095 2.438095h117.028572a2.438095 2.438095 0 0 0 2.438095-2.438095v-117.028572a2.438095 2.438095 0 0 0-2.438095-2.438095h-117.028572z"  p-id="22709"></path><path d="M372.443429 234.300952a29.257143 29.257143 0 1 1-58.514286 0 29.257143 29.257143 0 0 1 58.514286 0z"  p-id="22710"></path></svg>