<svg t="1740104635692" class="icon" viewBox="0 0 1024 1024" version="1.1" xmlns="http://www.w3.org/2000/svg" p-id="20278" width="200" height="200"><path d="M447.658667 545.564444L136.817778 377.628444a40.846222 40.846222 0 0 0-19.626667-4.892444c-22.414222 0-43.406222 19.683556-43.406222 46.990222v328.362667c0 34.247111 17.464889 65.080889 46.193778 80.497778l310.897777 168.049777c5.973333 3.413333 12.686222 5.347556 19.569778 5.575112 22.414222 0 43.463111-20.309333 43.463111-47.616v-328.362667c0-33.564444-17.521778-65.080889-46.250666-80.497778v-0.056889z m-23.779556 367.616L152.860444 766.862222a22.243556 22.243556 0 0 1-9.102222-18.887111V460.913778l270.961778 146.318222c5.632 3.470222 9.102222 11.207111 9.102222 18.944v287.004444z m516.664889-540.501333c-6.826667 0-13.539556 1.649778-19.569778 4.892445l-310.840889 168.732444c-28.728889 15.36-46.250667 46.876444-46.250666 81.237333v326.997334c0 27.306667 20.992 47.559111 43.406222 47.559111a40.334222 40.334222 0 0 0 19.569778-4.835556l310.954666-168.789333a91.591111 91.591111 0 0 0 46.193778-80.497778V419.612444c0-27.306667-21.048889-46.876444-43.463111-46.876444v-0.056889z m-26.567111 374.556445c0 9.841778-4.892444 16.839111-9.102222 18.944l-271.018667 147.000888v-285.639111c0-9.784889 4.892444-16.782222 9.102222-18.887111l271.018667-147.740444v286.321778z m-21.674667-446.691556c14.677333-7.736889 21.674667-20.992 20.252445-33.564444 1.365333-13.312-5.575111-25.941333-20.252445-33.621334L575.715556 68.152889A96.711111 96.711111 0 0 0 528.896 56.888889a101.489778 101.489778 0 0 0-47.616 11.207111L164.067556 232.675556a35.84 35.84 0 0 0-20.309334 34.247111c-0.682667 12.629333 5.688889 25.941333 20.366222 33.621333l316.416 164.522667c13.994667 7.736889 30.833778 11.207111 47.672889 11.207111h1.365334a101.831111 101.831111 0 0 0 47.616-11.207111l315.107555-164.522667z m-364.088889 105.756444a35.84 35.84 0 0 1-15.473777-3.527111L250.88 266.922667l261.859556-136.533334a36.636444 36.636444 0 0 1 31.516444 0l261.859556 136.533334L543.630222 402.773333a31.288889 31.288889 0 0 1-15.36 3.527111h-0.056889z" p-id="20279"></path></svg>